<svg width="1440" height="900" viewBox="0 0 1440 900" fill="none" xmlns="http://www.w3.org/2000/svg">
<rect width="1440" height="900" fill="url(#paint0_linear)"/>
<path d="M826 164C826 137.49 847.49 116 874 116H1440V212H874C847.49 212 826 190.51 826 164V164Z" fill="#BEC1FF" fill-opacity="0.1"/>
<rect width="174" height="96" rx="48" transform="matrix(-1 0 0 1 786 116)" fill="url(#paint1_linear)" fill-opacity="0.05"/>
<path d="M866 164C866 137.49 887.49 116 914 116H1440V212H914C887.49 212 866 190.51 866 164V164Z" fill="#BEC1FF" fill-opacity="0.1"/>
<path d="M906 164C906 137.49 927.49 116 954 116H1440V212H954C927.49 212 906 190.51 906 164V164Z" fill="#BEC1FF" fill-opacity="0.1"/>
<path d="M906 260C906 233.49 927.49 212 954 212H1440V308H954C927.49 308 906 286.51 906 260V260Z" fill="#36A2FF" fill-opacity="0.1"/>
<path d="M866 260C866 233.49 844.51 212 818 212H740C713.49 212 692 233.49 692 260V260C692 286.51 713.49 308 740 308H818C844.51 308 866 286.51 866 260V260Z" fill="url(#paint2_linear)" fill-opacity="0.1"/>
<path d="M946 260C946 233.49 967.49 212 994 212H1440V308H994C967.49 308 946 286.51 946 260V260Z" fill="#36A2FF" fill-opacity="0.1"/>
<path d="M1134 356C1134 329.49 1155.49 308 1182 308H1440V404H1182C1155.49 404 1134 382.51 1134 356V356Z" fill="#85FFDA" fill-opacity="0.1"/>
<path d="M1174 356C1174 329.49 1195.49 308 1222 308H1440V404H1222C1195.49 404 1174 382.51 1174 356V356Z" fill="#85FFDA" fill-opacity="0.1"/>
<rect width="349" height="96" rx="48" transform="matrix(-1 0 0 1 1094 308)" fill="url(#paint3_linear)" fill-opacity="0.05"/>
<path d="M1013 452C1013 425.49 1034.49 404 1061 404H1440V500H1061C1034.49 500 1013 478.51 1013 452V452Z" fill="#BEC1FF" fill-opacity="0.1"/>
<path d="M1053 452C1053 425.49 1074.49 404 1101 404H1440V500H1101C1074.49 500 1053 478.51 1053 452V452Z" fill="#BEC1FF" fill-opacity="0.1"/>
<path d="M1093 452C1093 425.49 1114.49 404 1141 404H1440V500H1141C1114.49 500 1093 478.51 1093 452V452Z" fill="#BEC1FF" fill-opacity="0.1"/>
<rect width="224" height="96" rx="48" transform="matrix(-1 0 0 1 926 500)" fill="url(#paint4_linear)" fill-opacity="0.05"/>
<path d="M946 548C946 521.49 967.49 500 994 500H1440V596H994C967.49 596 946 574.51 946 548V548Z" fill="white" fill-opacity="0.1"/>
<path d="M986 548C986 521.49 1007.49 500 1034 500H1440V596H1034C1007.49 596 986 574.51 986 548V548Z" fill="white" fill-opacity="0.1"/>
<path d="M1117 644C1117 617.49 1138.49 596 1165 596H1440V692H1165C1138.49 692 1117 670.51 1117 644V644Z" fill="#71CCFF" fill-opacity="0.15"/>
<rect width="223" height="96" rx="48" transform="matrix(-1 0 0 1 1097 596)" fill="url(#paint5_linear)" fill-opacity="0.15"/>
<path d="M1157 644C1157 617.49 1178.49 596 1205 596H1440V692H1205C1178.49 692 1157 670.51 1157 644V644Z" fill="#71CCFF" fill-opacity="0.15"/>
<path d="M1183 740C1183 713.49 1204.49 692 1231 692H1440V788H1231C1204.49 788 1183 766.51 1183 740V740Z" fill="white" fill-opacity="0.1"/>
<rect width="323" height="96" rx="48" transform="matrix(-1 0 0 1 1163 692)" fill="url(#paint6_linear)" fill-opacity="0.05"/>
<path d="M1223 740C1223 713.49 1244.49 692 1271 692H1440V788H1271C1244.49 788 1223 766.51 1223 740V740Z" fill="white" fill-opacity="0.1"/>
<path d="M1263 740C1263 713.49 1284.49 692 1311 692H1440V788H1311C1284.49 788 1263 766.51 1263 740V740Z" fill="white" fill-opacity="0.1"/>
<defs>
<linearGradient id="paint0_linear" x1="1440" y1="900" x2="-1.47521e-05" y2="2.36034e-05" gradientUnits="userSpaceOnUse">
<stop stop-color="#3F00D9"/>
<stop offset="1" stop-color="#020050"/>
</linearGradient>
<linearGradient id="paint1_linear" x1="6.48201e-07" y1="48" x2="174" y2="48" gradientUnits="userSpaceOnUse">
<stop stop-color="#BEC1FF"/>
<stop offset="1" stop-color="#BEC1FF" stop-opacity="0"/>
</linearGradient>
<linearGradient id="paint2_linear" x1="875.275" y1="260" x2="692" y2="260" gradientUnits="userSpaceOnUse">
<stop stop-color="#36A2FF"/>
<stop offset="1" stop-color="#36A2FF" stop-opacity="0"/>
</linearGradient>
<linearGradient id="paint3_linear" x1="2.60025e-06" y1="48" x2="349" y2="48" gradientUnits="userSpaceOnUse">
<stop stop-color="#85FFDA"/>
<stop offset="1" stop-color="#85FFDA" stop-opacity="0"/>
</linearGradient>
<linearGradient id="paint4_linear" x1="0" y1="48" x2="174.8" y2="48" gradientUnits="userSpaceOnUse">
<stop stop-color="white"/>
<stop offset="1" stop-color="white" stop-opacity="0"/>
</linearGradient>
<linearGradient id="paint5_linear" x1="-1.66148e-06" y1="48" x2="223" y2="48" gradientUnits="userSpaceOnUse">
<stop stop-color="#71CCFF"/>
<stop offset="1" stop-color="#71CCFF" stop-opacity="0"/>
</linearGradient>
<linearGradient id="paint6_linear" x1="0" y1="48" x2="323" y2="48" gradientUnits="userSpaceOnUse">
<stop stop-color="white"/>
<stop offset="1" stop-color="#3F00D9" stop-opacity="0"/>
</linearGradient>
</defs>
</svg>
