<svg width="138" height="138" viewBox="0 0 138 138" fill="none" xmlns="http://www.w3.org/2000/svg">
<path d="M112.125 138H25.875C11.5834 138 0 126.417 0 112.125V25.875C0 11.5834 11.5834 0 25.875 0H112.125C126.417 0 138 11.5834 138 25.875V112.125C138 126.417 126.417 138 112.125 138Z" fill="white"/>
<path d="M69 35.9361C49.9387 35.9361 34.5 51.1161 34.5 69.8366C34.5 84.8183 44.3843 97.5229 58.0894 101.999C59.8144 102.318 60.4483 101.27 60.4483 100.369C60.4483 99.5627 60.4181 97.4323 60.4052 94.6076C50.8099 96.6518 48.783 90.0579 48.783 90.0579C47.2133 86.1465 44.9449 85.0986 44.9449 85.0986C41.8183 82.9984 45.1864 83.0372 45.1864 83.0372C48.6493 83.2744 50.4692 86.5303 50.4692 86.5303C53.544 91.7139 58.5465 90.2175 60.5173 89.3507C60.8278 87.1599 61.7162 85.6635 62.7037 84.8182C55.0404 83.9687 46.989 81.0534 46.989 68.0642C46.989 64.3641 48.3259 61.341 50.5382 58.9691C50.1501 58.1153 48.9857 54.6653 50.8401 49.9948C50.8401 49.9948 53.7294 49.0849 60.3276 53.4707C63.0876 52.716 66.0201 52.3451 68.9526 52.3279C71.8851 52.3451 74.8176 52.716 77.5776 53.4707C84.1326 49.0849 87.0219 49.9948 87.0219 49.9948C88.8763 54.6653 87.7119 58.1109 87.3669 58.9691C89.5663 61.341 90.9032 64.3641 90.9032 68.0642C90.9032 81.0879 82.8388 83.9557 75.1626 84.7881C76.3701 85.8058 77.4913 87.8844 77.4913 91.0584C77.4913 95.5952 77.4482 99.2393 77.4482 100.343C77.4482 101.232 78.0519 102.293 79.8201 101.952C93.6244 97.5099 103.5 84.7967 103.5 69.8409C103.5 51.1161 88.0526 35.9361 69 35.9361V35.9361Z" fill="#3F00D9"/>
</svg>
