<svg width="138" height="138" viewBox="0 0 138 138" fill="none" xmlns="http://www.w3.org/2000/svg">
<path d="M112.125 138H25.875C11.5834 138 0 126.417 0 112.125V25.875C0 11.5834 11.5834 0 25.875 0H112.125C126.417 0 138 11.5834 138 25.875V112.125C138 126.417 126.417 138 112.125 138Z" fill="white"/>
<path d="M103.483 103.5L103.5 103.496V78.1899C103.5 65.8087 100.835 56.2738 86.3621 56.2738C79.406 56.2738 74.7356 60.0904 72.8294 63.7129H72.6311V57.4296H58.9087V103.496H73.2003V80.6869C73.2003 74.6796 74.3388 68.8749 81.7779 68.8749C89.1048 68.8749 89.2169 75.7275 89.2169 81.075V103.5H103.483Z" fill="#3F00D9"/>
<path d="M35.6384 57.4339H49.943V103.5H35.6384V57.4339Z" fill="#3F00D9"/>
<path d="M42.7843 34.5C38.2131 34.5 34.5 38.2131 34.5 42.7843C34.5 47.3599 38.2131 51.1462 42.7843 51.1462C47.3556 51.1462 51.0686 47.3599 51.0686 42.7843C51.0686 38.2131 47.3556 34.5 42.7843 34.5V34.5Z" fill="#3F00D9"/>
</svg>
