<svg width="137" height="138" viewBox="0 0 137 138" fill="none" xmlns="http://www.w3.org/2000/svg">
<path d="M111.312 138H25.6875C11.4994 138 0 126.417 0 112.125V25.875C0 11.5834 11.4994 0 25.6875 0H111.312C125.501 0 137 11.5834 137 25.875V112.125C137 126.417 125.501 138 111.312 138Z" fill="white"/>
<path d="M97.2828 48.1059L102.75 42.8404V41.6889H83.814L70.3195 75.5205L54.9713 41.6889H35.1148V42.8447L41.5024 50.5856C42.1232 51.1549 42.4529 51.9958 42.3672 52.8367V83.2614C42.5642 84.3568 42.2088 85.4824 41.4468 86.2802L34.25 95.0604V96.1989H54.6416V95.0432L47.4491 86.2759C46.6699 85.4781 46.3017 84.3697 46.4601 83.2571V56.9422L64.36 96.2119H66.4407L81.8318 56.9422V88.2251C81.8318 89.0531 81.8318 89.2213 81.2924 89.7604L75.7524 95.1553V96.3111H102.617V95.1553L97.2786 89.8897C96.8119 89.5361 96.5679 88.9367 96.6663 88.3545V49.6412C96.5764 49.059 96.8162 48.4596 97.2828 48.1059V48.1059Z" fill="#3F00D9"/>
</svg>
