<svg width="138" height="138" viewBox="0 0 138 138" fill="none" xmlns="http://www.w3.org/2000/svg">
<path d="M112.125 138H25.875C11.5834 138 0 126.417 0 112.125V25.875C0 11.5834 11.5834 0 25.875 0H112.125C126.417 0 138 11.5834 138 25.875V112.125C138 126.417 126.417 138 112.125 138Z" fill="white"/>
<path d="M96.4103 54.9499C99.2177 52.9575 101.577 50.4692 103.5 47.6057V47.6014C100.934 48.7269 98.1999 49.473 95.3494 49.8352C98.2819 48.0844 100.52 45.333 101.572 42.0167C98.8382 43.6468 95.8194 44.7982 92.6023 45.4408C90.0062 42.6808 86.3061 40.9688 82.2696 40.9688C74.4381 40.9688 68.1332 47.3254 68.1332 55.1181C68.1332 56.2393 68.2281 57.3174 68.4609 58.3438C56.7008 57.7703 46.2947 52.1338 39.3041 43.5476C38.0837 45.6651 37.3678 48.0887 37.3678 50.6977C37.3678 55.5967 39.8906 59.9394 43.6511 62.4536C41.3784 62.4105 39.1489 61.7507 37.26 60.7114V60.8666C37.26 67.7408 42.1633 73.4505 48.5932 74.7658C47.4418 75.0806 46.1869 75.2316 44.8845 75.2316C43.9789 75.2316 43.0646 75.1798 42.2064 74.9901C44.0392 80.592 49.2401 84.7104 55.4243 84.8441C50.6115 88.6089 44.5007 90.8773 37.8853 90.8773C36.7252 90.8773 35.6126 90.8256 34.5 90.6832C40.7661 94.7241 48.1922 97.0312 56.2005 97.0312C81.1612 97.0312 97.4323 76.2062 96.4103 54.9499V54.9499Z" fill="#3F00D9"/>
</svg>
