<svg width="512" height="512" viewBox="0 0 512 512" fill="none" xmlns="http://www.w3.org/2000/svg">
<path d="M378.879 40.96H133.119C82.2979 40.96 40.959 82.3091 40.959 133.12V378.88C40.959 429.691 82.2979 471.04 133.119 471.04H378.879C429.7 471.04 471.039 429.691 471.039 378.88V133.12C471.039 82.3091 429.7 40.96 378.879 40.96ZM356.566 177.93L333.444 200.151C331.57 201.953 328.744 202.015 326.819 200.274C311.807 186.665 245.442 159.826 234.198 193.157C228.689 209.469 241.745 222.31 274.564 231.127C331.601 246.456 346.531 283.126 341.278 315.781C336.997 342.415 317.552 371.548 270.837 377.661L264.529 405.596C264.007 407.941 261.928 409.6 259.532 409.6H217.548C214.261 409.6 211.834 406.559 212.551 403.354L218.848 375.46C181.738 367.432 161.76 345.078 154.807 335.667C153.138 333.404 153.64 330.199 155.862 328.509L181.175 309.279C183.274 307.691 186.152 308.029 187.872 310.036C193.596 316.713 208.209 330.455 234.864 334.612C272.854 340.541 285.613 328.212 288.234 313.364C296.242 268.073 173.823 286.187 182.824 194.56C186.316 159.16 217.845 133.12 255.886 133.12C261.959 133.12 267.703 133.489 273.233 134.052L279.469 106.455C279.991 104.12 282.07 102.461 284.466 102.461H326.45C329.737 102.461 332.164 105.503 331.447 108.708L322.682 147.528C340.018 155.709 351.323 165.335 356.668 170.537C358.737 172.554 358.655 175.923 356.566 177.93Z" fill="#36D631"/>
</svg>
